<svg xmlns="http://www.w3.org/2000/svg" xmlns:xlink="http://www.w3.org/1999/xlink"><defs>
    <style>
      .cls-1 {
        fill: #fff;
        stroke: #009cb0;
        stroke-linejoin: round;
        stroke-width: 3px;
        fill-rule: evenodd;
      }
    </style>
  
    <style>
      .cls-1 {
        fill: #fff;
        stroke: #009cb0;
        stroke-linejoin: round;
        stroke-width: 3px;
        fill-rule: evenodd;
      }
    </style>
  </defs><symbol id="arrow-left" viewBox="0 0 35 30">
  <metadata><?xpacket begin="﻿" id="W5M0MpCehiHzreSzNTczkc9d"?>
<x:xmpmeta xmlns:x="adobe:ns:meta/" x:xmptk="Adobe XMP Core 5.6-c142 79.160924, 2017/07/13-01:06:39        ">
   <rdf:RDF xmlns:rdf="http://www.w3.org/1999/02/22-rdf-syntax-ns#">
      <rdf:Description rdf:about=""/>
   </rdf:RDF>
</x:xmpmeta>





















<?xpacket end="w"?></metadata>

  <path id="&#x43B;&#x435;&#x432;&#x430;&#x44F;" class="cls-1" d="M1135.94,716.8h-12.42v5.688l-14.57-10.99,14.57-10.99V706.2h12.42v10.6Z" transform="translate(-1104.5 -696.5)"/>
</symbol><symbol id="arrow-right" viewBox="0 0 34 30">
  <metadata><?xpacket begin="﻿" id="W5M0MpCehiHzreSzNTczkc9d"?>
<x:xmpmeta xmlns:x="adobe:ns:meta/" x:xmptk="Adobe XMP Core 5.6-c142 79.160924, 2017/07/13-01:06:39        ">
   <rdf:RDF xmlns:rdf="http://www.w3.org/1999/02/22-rdf-syntax-ns#">
      <rdf:Description rdf:about=""/>
   </rdf:RDF>
</x:xmpmeta>
                                                                                                    
                                                                                                    
                                                                                                    
                                                                                                    
                                                                                                    
                                                                                                    
                                                                                                    
                                                                                                    
                                                                                                    
                                                                                                    
                                                                                                    
                                                                                                    
                                                                                                    
                                                                                                    
                                                                                                    
                                                                                                    
                                                                                                    
                                                                                                    
                                                                                                    
                                                                                                    
                           
<?xpacket end="w"?></metadata>

  <path id="&#x43F;&#x440;&#x430;&#x432;&#x430;&#x44F;_&#x43F;&#x440;&#x438;_&#x43D;&#x430;&#x432;&#x435;&#x434;&#x435;&#x43D;&#x438;&#x438;" data-name="&#x43F;&#x440;&#x430;&#x432;&#x430;&#x44F; &#x43F;&#x440;&#x438; &#x43D;&#x430;&#x432;&#x435;&#x434;&#x435;&#x43D;&#x438;&#x438;" class="cls-1" d="M1234.01,716.8h12.42v5.688L1261,711.5l-14.57-10.99V706.2h-12.42v10.6Z" transform="translate(-1230.5 -696.5)"/>
</symbol><symbol id="vk" viewBox="0 0 18 10"><path d="M16.41.687c.109-.38 0-.662-.534-.662h-1.76a.757.757 0 0 0-.766.51 15.135 15.135 0 0 1-2.163 3.676c-.41.418-.6.551-.822.551-.111 0-.281-.134-.281-.516V.687c0-.458-.126-.662-.5-.662H6.82a.428.428 0 0 0-.448.412c0 .433.634.534.7 1.754v2.647c0 .58-.1.687-.326.687-.6 0-2.05-2.239-2.911-4.8-.173-.5-.343-.7-.795-.7H1.28c-.5 0-.6.241-.6.51 0 .476.6 2.84 2.782 5.962a6.838 6.838 0 0 0 5.37 3.288c1.12 0 1.259-.256 1.259-.7 0-2.037-.1-2.229.46-2.229.26 0 .708.134 1.755 1.161 1.2 1.221 1.393 1.766 2.062 1.766h1.757c.5 0 .756-.256.61-.762-.335-1.065-2.6-3.255-2.7-3.4-.261-.342-.186-.494 0-.8A22.472 22.472 0 0 0 16.41.687z"/></symbol><symbol id="youtube" viewBox="0 0 17 13"><path d="M16.432 2.256A2.074 2.074 0 0 0 14.988.775a47.729 47.729 0 0 0-6.387-.35 47.728 47.728 0 0 0-6.387.35A2.073 2.073 0 0 0 .77 2.255a22.351 22.351 0 0 0-.342 4.033A22.33 22.33 0 0 0 .77 10.32a2.04 2.04 0 0 0 1.443 1.455c2.119.26 4.253.378 6.387.352a47.59 47.59 0 0 0 6.387-.351 2.04 2.04 0 0 0 1.445-1.457c.236-1.33.35-2.68.342-4.031.008-1.352-.106-2.7-.342-4.031zm-9.5 6.506V3.81l4.272 2.474-4.272 2.478z"/></symbol></svg>